<mxfile host="app.diagrams.net" modified="2023-08-01T00:23:24.399Z" agent="Mozilla/5.0 (Windows NT 10.0; Win64; x64) AppleWebKit/537.36 (KHTML, like Gecko) Chrome/115.0.0.0 Safari/537.36 Edg/115.0.1901.188" etag="8ED13OMPjWktoi43-ppZ" version="21.6.6" type="github">
  <diagram name="Page-1" id="ZM7KwN15TKdwrF_smxBT">
    <mxGraphModel dx="995" dy="620" grid="1" gridSize="10" guides="1" tooltips="1" connect="1" arrows="1" fold="1" page="1" pageScale="1" pageWidth="850" pageHeight="1100" math="0" shadow="0">
      <root>
        <mxCell id="0" />
        <mxCell id="1" parent="0" />
        <mxCell id="_Z4h8GkDupGTbP3zN5XG-1" value="" style="rounded=1;whiteSpace=wrap;html=1;arcSize=5;glass=0;shadow=1;" vertex="1" parent="1">
          <mxGeometry x="40" y="40" width="220" height="340" as="geometry" />
        </mxCell>
        <mxCell id="_Z4h8GkDupGTbP3zN5XG-2" value="Add Run" style="text;html=1;strokeColor=none;fillColor=none;align=center;verticalAlign=middle;whiteSpace=wrap;rounded=0;fontStyle=1;fontSize=14;" vertex="1" parent="1">
          <mxGeometry x="110" y="50" width="80" height="30" as="geometry" />
        </mxCell>
        <mxCell id="_Z4h8GkDupGTbP3zN5XG-3" value="&amp;nbsp;635-636" style="rounded=1;whiteSpace=wrap;html=1;arcSize=5;absoluteArcSize=1;align=left;fontColor=#404040;fontSize=10;" vertex="1" parent="1">
          <mxGeometry x="72.5" y="95" width="155" height="30" as="geometry" />
        </mxCell>
        <mxCell id="_Z4h8GkDupGTbP3zN5XG-5" value="Room" style="text;html=1;strokeColor=none;fillColor=default;align=left;verticalAlign=middle;whiteSpace=wrap;rounded=0;fontStyle=2" vertex="1" parent="1">
          <mxGeometry x="75.5" y="90" width="40" height="10" as="geometry" />
        </mxCell>
        <mxCell id="_Z4h8GkDupGTbP3zN5XG-6" value="&amp;nbsp;Lock interconnecting door" style="rounded=1;whiteSpace=wrap;html=1;arcSize=5;absoluteArcSize=1;align=left;verticalAlign=middle;fontColor=#404040;fontSize=10;" vertex="1" parent="1">
          <mxGeometry x="72.5" y="145" width="155" height="64" as="geometry" />
        </mxCell>
        <mxCell id="_Z4h8GkDupGTbP3zN5XG-7" value="Request" style="text;html=1;strokeColor=none;fillColor=default;align=left;verticalAlign=middle;whiteSpace=wrap;rounded=0;fontStyle=2" vertex="1" parent="1">
          <mxGeometry x="75.5" y="140" width="54.5" height="10" as="geometry" />
        </mxCell>
        <mxCell id="_Z4h8GkDupGTbP3zN5XG-8" value="&amp;nbsp;Vacant" style="rounded=1;whiteSpace=wrap;html=1;arcSize=5;absoluteArcSize=1;align=left;fontColor=#404040;fontSize=10;" vertex="1" parent="1">
          <mxGeometry x="72.5" y="232" width="155" height="30" as="geometry" />
        </mxCell>
        <mxCell id="_Z4h8GkDupGTbP3zN5XG-9" value="Status" style="text;html=1;strokeColor=none;fillColor=default;align=left;verticalAlign=middle;whiteSpace=wrap;rounded=0;fontStyle=2" vertex="1" parent="1">
          <mxGeometry x="75.5" y="227" width="40" height="10" as="geometry" />
        </mxCell>
        <mxCell id="_Z4h8GkDupGTbP3zN5XG-10" value="&amp;nbsp;Sebastian" style="rounded=1;whiteSpace=wrap;html=1;arcSize=5;absoluteArcSize=1;align=left;fontColor=#404040;fontSize=10;" vertex="1" parent="1">
          <mxGeometry x="72.5" y="282" width="155" height="30" as="geometry" />
        </mxCell>
        <mxCell id="_Z4h8GkDupGTbP3zN5XG-11" value="Houseperson" style="text;html=1;strokeColor=none;fillColor=default;align=left;verticalAlign=middle;whiteSpace=wrap;rounded=0;fontStyle=2" vertex="1" parent="1">
          <mxGeometry x="75.5" y="276" width="74.5" height="13" as="geometry" />
        </mxCell>
        <mxCell id="_Z4h8GkDupGTbP3zN5XG-12" value="Date: 1/08/2023, Time: 10:08AM" style="text;html=1;strokeColor=none;fillColor=none;align=center;verticalAlign=middle;whiteSpace=wrap;rounded=0;fontSize=10;" vertex="1" parent="1">
          <mxGeometry x="55" y="330" width="190" height="30" as="geometry" />
        </mxCell>
        <mxCell id="_Z4h8GkDupGTbP3zN5XG-13" value="" style="ellipse;whiteSpace=wrap;html=1;aspect=fixed;fillColor=#f8cecc;strokeColor=#b85450;" vertex="1" parent="1">
          <mxGeometry x="215" y="50" width="30" height="30" as="geometry" />
        </mxCell>
        <mxCell id="_Z4h8GkDupGTbP3zN5XG-14" value="" style="rounded=1;whiteSpace=wrap;html=1;arcSize=5;glass=0;shadow=1;" vertex="1" parent="1">
          <mxGeometry x="40" y="400" width="220" height="340" as="geometry" />
        </mxCell>
        <mxCell id="_Z4h8GkDupGTbP3zN5XG-15" value="Add Run" style="text;html=1;strokeColor=none;fillColor=none;align=center;verticalAlign=middle;whiteSpace=wrap;rounded=0;fontStyle=1;fontSize=14;" vertex="1" parent="1">
          <mxGeometry x="110" y="410" width="80" height="30" as="geometry" />
        </mxCell>
        <mxCell id="_Z4h8GkDupGTbP3zN5XG-16" value="&amp;nbsp;635-636" style="rounded=1;whiteSpace=wrap;html=1;arcSize=5;absoluteArcSize=1;align=left;fontColor=#404040;fontSize=10;" vertex="1" parent="1">
          <mxGeometry x="72.5" y="455" width="155" height="30" as="geometry" />
        </mxCell>
        <mxCell id="_Z4h8GkDupGTbP3zN5XG-17" value="Room" style="text;html=1;strokeColor=none;fillColor=default;align=left;verticalAlign=middle;whiteSpace=wrap;rounded=0;fontStyle=2" vertex="1" parent="1">
          <mxGeometry x="75.5" y="450" width="40" height="10" as="geometry" />
        </mxCell>
        <mxCell id="_Z4h8GkDupGTbP3zN5XG-18" value="&amp;nbsp;Lock interconnecting door" style="rounded=1;whiteSpace=wrap;html=1;arcSize=5;absoluteArcSize=1;align=left;verticalAlign=middle;fontColor=#404040;fontSize=10;" vertex="1" parent="1">
          <mxGeometry x="72.5" y="505" width="155" height="64" as="geometry" />
        </mxCell>
        <mxCell id="_Z4h8GkDupGTbP3zN5XG-19" value="Request" style="text;html=1;strokeColor=none;fillColor=default;align=left;verticalAlign=middle;whiteSpace=wrap;rounded=0;fontStyle=2" vertex="1" parent="1">
          <mxGeometry x="75.5" y="500" width="54.5" height="10" as="geometry" />
        </mxCell>
        <mxCell id="_Z4h8GkDupGTbP3zN5XG-20" value="&amp;nbsp;Vacant" style="rounded=1;whiteSpace=wrap;html=1;arcSize=5;absoluteArcSize=1;align=left;fontColor=#404040;fontSize=10;" vertex="1" parent="1">
          <mxGeometry x="72.5" y="592" width="155" height="30" as="geometry" />
        </mxCell>
        <mxCell id="_Z4h8GkDupGTbP3zN5XG-21" value="Status" style="text;html=1;strokeColor=none;fillColor=default;align=left;verticalAlign=middle;whiteSpace=wrap;rounded=0;fontStyle=2" vertex="1" parent="1">
          <mxGeometry x="75.5" y="587" width="40" height="10" as="geometry" />
        </mxCell>
        <mxCell id="_Z4h8GkDupGTbP3zN5XG-22" value="&amp;nbsp;Sebastian" style="rounded=1;whiteSpace=wrap;html=1;arcSize=5;absoluteArcSize=1;align=left;fontColor=#404040;fontSize=10;" vertex="1" parent="1">
          <mxGeometry x="72.5" y="642" width="155" height="30" as="geometry" />
        </mxCell>
        <mxCell id="_Z4h8GkDupGTbP3zN5XG-23" value="Houseperson" style="text;html=1;strokeColor=none;fillColor=default;align=left;verticalAlign=middle;whiteSpace=wrap;rounded=0;fontStyle=2" vertex="1" parent="1">
          <mxGeometry x="75.5" y="636" width="74.5" height="13" as="geometry" />
        </mxCell>
        <mxCell id="_Z4h8GkDupGTbP3zN5XG-24" value="Date: 1/08/2023, Time: 10:08AM" style="text;html=1;strokeColor=none;fillColor=none;align=center;verticalAlign=middle;whiteSpace=wrap;rounded=0;fontSize=10;" vertex="1" parent="1">
          <mxGeometry x="55" y="690" width="190" height="30" as="geometry" />
        </mxCell>
        <mxCell id="_Z4h8GkDupGTbP3zN5XG-25" value="" style="ellipse;whiteSpace=wrap;html=1;aspect=fixed;fillColor=#f8cecc;strokeColor=#b85450;" vertex="1" parent="1">
          <mxGeometry x="215" y="410" width="30" height="30" as="geometry" />
        </mxCell>
        <mxCell id="_Z4h8GkDupGTbP3zN5XG-26" value="" style="rounded=1;whiteSpace=wrap;html=1;arcSize=5;glass=0;shadow=1;" vertex="1" parent="1">
          <mxGeometry x="40" y="770" width="220" height="340" as="geometry" />
        </mxCell>
        <mxCell id="_Z4h8GkDupGTbP3zN5XG-27" value="Add Run" style="text;html=1;strokeColor=none;fillColor=none;align=center;verticalAlign=middle;whiteSpace=wrap;rounded=0;fontStyle=1;fontSize=14;" vertex="1" parent="1">
          <mxGeometry x="110" y="780" width="80" height="30" as="geometry" />
        </mxCell>
        <mxCell id="_Z4h8GkDupGTbP3zN5XG-28" value="&amp;nbsp;635-636" style="rounded=1;whiteSpace=wrap;html=1;arcSize=5;absoluteArcSize=1;align=left;fontColor=#404040;fontSize=10;" vertex="1" parent="1">
          <mxGeometry x="72.5" y="825" width="155" height="30" as="geometry" />
        </mxCell>
        <mxCell id="_Z4h8GkDupGTbP3zN5XG-29" value="Room" style="text;html=1;strokeColor=none;fillColor=default;align=left;verticalAlign=middle;whiteSpace=wrap;rounded=0;fontStyle=2" vertex="1" parent="1">
          <mxGeometry x="75.5" y="820" width="40" height="10" as="geometry" />
        </mxCell>
        <mxCell id="_Z4h8GkDupGTbP3zN5XG-30" value="&amp;nbsp;Lock interconnecting door" style="rounded=1;whiteSpace=wrap;html=1;arcSize=5;absoluteArcSize=1;align=left;verticalAlign=middle;fontColor=#404040;fontSize=10;" vertex="1" parent="1">
          <mxGeometry x="72.5" y="875" width="155" height="64" as="geometry" />
        </mxCell>
        <mxCell id="_Z4h8GkDupGTbP3zN5XG-31" value="Request" style="text;html=1;strokeColor=none;fillColor=default;align=left;verticalAlign=middle;whiteSpace=wrap;rounded=0;fontStyle=2" vertex="1" parent="1">
          <mxGeometry x="75.5" y="870" width="54.5" height="10" as="geometry" />
        </mxCell>
        <mxCell id="_Z4h8GkDupGTbP3zN5XG-32" value="&amp;nbsp;Vacant" style="rounded=1;whiteSpace=wrap;html=1;arcSize=5;absoluteArcSize=1;align=left;fontColor=#404040;fontSize=10;" vertex="1" parent="1">
          <mxGeometry x="72.5" y="962" width="155" height="30" as="geometry" />
        </mxCell>
        <mxCell id="_Z4h8GkDupGTbP3zN5XG-33" value="Status" style="text;html=1;strokeColor=none;fillColor=default;align=left;verticalAlign=middle;whiteSpace=wrap;rounded=0;fontStyle=2" vertex="1" parent="1">
          <mxGeometry x="75.5" y="957" width="40" height="10" as="geometry" />
        </mxCell>
        <mxCell id="_Z4h8GkDupGTbP3zN5XG-34" value="&amp;nbsp;Sebastian" style="rounded=1;whiteSpace=wrap;html=1;arcSize=5;absoluteArcSize=1;align=left;fontColor=#404040;fontSize=10;" vertex="1" parent="1">
          <mxGeometry x="72.5" y="1012" width="155" height="30" as="geometry" />
        </mxCell>
        <mxCell id="_Z4h8GkDupGTbP3zN5XG-35" value="Houseperson" style="text;html=1;strokeColor=none;fillColor=default;align=left;verticalAlign=middle;whiteSpace=wrap;rounded=0;fontStyle=2" vertex="1" parent="1">
          <mxGeometry x="75.5" y="1006" width="74.5" height="13" as="geometry" />
        </mxCell>
        <mxCell id="_Z4h8GkDupGTbP3zN5XG-36" value="Date: 1/08/2023, Time: 10:08AM" style="text;html=1;strokeColor=none;fillColor=none;align=center;verticalAlign=middle;whiteSpace=wrap;rounded=0;fontSize=10;" vertex="1" parent="1">
          <mxGeometry x="55" y="1060" width="190" height="30" as="geometry" />
        </mxCell>
        <mxCell id="_Z4h8GkDupGTbP3zN5XG-37" value="" style="ellipse;whiteSpace=wrap;html=1;aspect=fixed;fillColor=#f8cecc;strokeColor=#b85450;" vertex="1" parent="1">
          <mxGeometry x="215" y="780" width="30" height="30" as="geometry" />
        </mxCell>
        <mxCell id="_Z4h8GkDupGTbP3zN5XG-38" value="" style="rounded=1;whiteSpace=wrap;html=1;arcSize=5;glass=0;shadow=1;" vertex="1" parent="1">
          <mxGeometry x="290" y="210" width="220" height="150" as="geometry" />
        </mxCell>
        <mxCell id="_Z4h8GkDupGTbP3zN5XG-39" value="Rooms" style="text;html=1;strokeColor=none;fillColor=none;align=center;verticalAlign=middle;whiteSpace=wrap;rounded=0;fontStyle=1;fontSize=14;" vertex="1" parent="1">
          <mxGeometry x="360" y="220" width="80" height="30" as="geometry" />
        </mxCell>
        <mxCell id="_Z4h8GkDupGTbP3zN5XG-51" value="&amp;nbsp;635-636" style="rounded=1;whiteSpace=wrap;html=1;arcSize=5;absoluteArcSize=1;align=left;fontColor=#404040;fontSize=10;" vertex="1" parent="1">
          <mxGeometry x="322.5" y="265" width="155" height="30" as="geometry" />
        </mxCell>
        <mxCell id="_Z4h8GkDupGTbP3zN5XG-50" value="" style="endArrow=classic;html=1;rounded=0;exitX=1;exitY=0.5;exitDx=0;exitDy=0;entryX=0;entryY=0.5;entryDx=0;entryDy=0;" edge="1" parent="1" source="_Z4h8GkDupGTbP3zN5XG-3" target="_Z4h8GkDupGTbP3zN5XG-38">
          <mxGeometry width="50" height="50" relative="1" as="geometry">
            <mxPoint x="310" y="330" as="sourcePoint" />
            <mxPoint x="360" y="280" as="targetPoint" />
          </mxGeometry>
        </mxCell>
        <mxCell id="_Z4h8GkDupGTbP3zN5XG-41" value="Room" style="text;html=1;strokeColor=none;fillColor=default;align=left;verticalAlign=middle;whiteSpace=wrap;rounded=0;fontStyle=2" vertex="1" parent="1">
          <mxGeometry x="325.5" y="260" width="40" height="10" as="geometry" />
        </mxCell>
        <mxCell id="_Z4h8GkDupGTbP3zN5XG-52" value="Add list of rooms by using comma &#39;,&#39; or slash &#39;/&#39;" style="text;html=1;strokeColor=none;fillColor=none;align=center;verticalAlign=middle;whiteSpace=wrap;rounded=0;" vertex="1" parent="1">
          <mxGeometry x="330" y="315" width="140" height="30" as="geometry" />
        </mxCell>
        <mxCell id="_Z4h8GkDupGTbP3zN5XG-53" value="" style="rounded=1;whiteSpace=wrap;html=1;arcSize=5;glass=0;shadow=1;" vertex="1" parent="1">
          <mxGeometry x="290" y="40" width="220" height="150" as="geometry" />
        </mxCell>
        <mxCell id="_Z4h8GkDupGTbP3zN5XG-54" value="Action" style="text;html=1;strokeColor=none;fillColor=none;align=center;verticalAlign=middle;whiteSpace=wrap;rounded=0;fontStyle=1;fontSize=14;" vertex="1" parent="1">
          <mxGeometry x="360" y="50" width="80" height="30" as="geometry" />
        </mxCell>
        <mxCell id="_Z4h8GkDupGTbP3zN5XG-57" value="Green: Put in room, Red: Pick up, Orange: Maximo, Blue: Supervisor" style="text;html=1;strokeColor=none;fillColor=none;align=center;verticalAlign=middle;whiteSpace=wrap;rounded=0;" vertex="1" parent="1">
          <mxGeometry x="300" y="140" width="200" height="30" as="geometry" />
        </mxCell>
        <mxCell id="_Z4h8GkDupGTbP3zN5XG-63" value="" style="ellipse;whiteSpace=wrap;html=1;aspect=fixed;fillColor=#d5e8d4;strokeColor=#82b366;" vertex="1" parent="1">
          <mxGeometry x="326.25" y="90" width="30" height="30" as="geometry" />
        </mxCell>
        <mxCell id="_Z4h8GkDupGTbP3zN5XG-64" value="" style="ellipse;whiteSpace=wrap;html=1;aspect=fixed;fillColor=#f8cecc;strokeColor=#b85450;" vertex="1" parent="1">
          <mxGeometry x="366.25" y="90" width="30" height="30" as="geometry" />
        </mxCell>
        <mxCell id="_Z4h8GkDupGTbP3zN5XG-65" value="" style="ellipse;whiteSpace=wrap;html=1;aspect=fixed;fillColor=#ffe6cc;strokeColor=#d79b00;" vertex="1" parent="1">
          <mxGeometry x="403.75" y="90" width="30" height="30" as="geometry" />
        </mxCell>
        <mxCell id="_Z4h8GkDupGTbP3zN5XG-66" value="" style="ellipse;whiteSpace=wrap;html=1;aspect=fixed;fillColor=#dae8fc;strokeColor=#6c8ebf;" vertex="1" parent="1">
          <mxGeometry x="443.75" y="90" width="30" height="30" as="geometry" />
        </mxCell>
        <mxCell id="_Z4h8GkDupGTbP3zN5XG-67" value="" style="endArrow=classic;html=1;rounded=0;exitX=1;exitY=0.5;exitDx=0;exitDy=0;entryX=0;entryY=0.5;entryDx=0;entryDy=0;" edge="1" parent="1" source="_Z4h8GkDupGTbP3zN5XG-13" target="_Z4h8GkDupGTbP3zN5XG-53">
          <mxGeometry width="50" height="50" relative="1" as="geometry">
            <mxPoint x="280" y="70" as="sourcePoint" />
            <mxPoint x="330" y="20" as="targetPoint" />
          </mxGeometry>
        </mxCell>
      </root>
    </mxGraphModel>
  </diagram>
</mxfile>
